<?xml version="1.0" standalone="no"?>
<!DOCTYPE svg PUBLIC "-//W3C//DTD SVG 20010904//EN"
 "http://www.w3.org/TR/2001/REC-SVG-20010904/DTD/svg10.dtd">
<svg version="1.0" xmlns="http://www.w3.org/2000/svg"
 width="299.000000pt" height="299.000000pt" viewBox="0 0 299.000000 299.000000"
 preserveAspectRatio="xMidYMid meet">
<metadata>
Created by potrace 1.14, written by Peter Selinger 2001-2017
</metadata>
<g transform="translate(0.000000,299.000000) scale(0.100000,-0.100000)"
fill="#000000" stroke="none">
<path d="M1387 2774 c-4 -4 -7 -272 -7 -596 l0 -588 -90 0 -90 0 0 574 c0 316
-4 577 -8 580 -13 8 -203 -59 -284 -100 -159 -80 -284 -181 -432 -348 -89
-102 -219 -358 -241 -479 l-7 -38 108 3 109 3 22 65 c28 82 84 188 138 265 80
112 233 251 346 315 l39 21 0 -430 0 -431 -90 0 c-88 0 -90 1 -96 25 -3 14 -4
115 -1 225 4 123 2 202 -4 206 -35 21 -161 -233 -193 -391 l-13 -60 -202 -3
-202 -2 3 -103 3 -102 202 -3 203 -2 0 -28 c0 -90 112 -352 175 -412 l25 -23
0 24 c1 13 1 108 1 210 0 103 3 196 6 208 5 19 12 21 94 21 l89 0 0 -430 0
-429 -50 29 c-28 17 -74 47 -103 69 -55 40 -207 188 -207 201 0 4 -14 25 -31
46 -38 48 -94 155 -129 249 l-26 70 -108 3 -108 3 7 -38 c10 -55 79 -223 124
-302 137 -242 341 -431 588 -543 88 -40 200 -78 230 -78 l23 0 0 575 0 575 90
0 90 0 2 -592 3 -593 105 0 105 0 3 593 2 592 90 0 90 0 0 -575 c0 -659 -13
-591 106 -554 293 89 577 320 734 597 55 98 129 288 130 335 0 4 -49 7 -108 7
l-108 0 -18 -57 c-39 -126 -144 -297 -242 -398 -85 -86 -244 -205 -276 -205
-4 0 -8 191 -8 425 l0 425 95 0 95 0 0 -232 1 -233 24 28 c68 77 141 238 168
372 l13 60 199 5 200 5 0 100 0 100 -199 5 -199 5 -13 60 c-21 103 -68 220
-125 309 -29 47 -57 86 -61 86 -4 0 -9 -102 -10 -227 l-3 -228 -92 -3 -93 -3
0 426 c0 234 4 425 8 425 12 0 119 -66 155 -96 171 -140 307 -331 363 -506
l18 -58 108 0 c85 0 108 3 108 14 0 28 -53 173 -93 255 -121 248 -334 468
-572 589 -81 41 -284 114 -297 106 -4 -3 -8 -264 -8 -580 l0 -574 -90 0 -90 0
-2 593 -3 592 -101 3 c-55 1 -103 0 -107 -4z"/>
</g>
</svg>
